<svg xmlns="http://www.w3.org/2000/svg" width="56" height="83" viewBox="0 0 56 83">
  <path id="icon" d="M10.605,82.663a3.69,3.69,0,0,1-2.159-3.357c0-.037,0-.078,0-.115L9.747,48.7A27.534,27.534,0,0,1,0,27.708a28,28,0,0,1,56,0,27.535,27.535,0,0,1-9.749,21l1.3,30.488c0,.037,0,.078,0,.115A3.7,3.7,0,0,1,43.859,83a3.737,3.737,0,0,1-2.414-.9L28,70.636,14.559,82.1a3.68,3.68,0,0,1-3.954.567Zm19.89-17.1,11.377,9.7L40.893,52.3a28.23,28.23,0,0,1-25.786,0l-.979,22.969,11.376-9.7a3.652,3.652,0,0,1,4.991,0ZM5.51,27.708a22.492,22.492,0,0,0,44.982,0,22.492,22.492,0,0,0-44.982,0ZM24.318,37.883a2.769,2.769,0,0,1-1.949-.812l-7.527-7.54a2.7,2.7,0,0,1,.024-3.853,2.773,2.773,0,0,1,3.894.024l5.581,5.589L36.335,19.423a2.773,2.773,0,0,1,3.9,0,2.7,2.7,0,0,1,0,3.853L26.276,37.084a2.77,2.77,0,0,1-1.948.8Z" fill="#2aa47f"/>
</svg>
