<svg xmlns="http://www.w3.org/2000/svg" width="87" height="59" viewBox="0 0 87 59">
  <path id="icon" d="M55.111,51.044H38.835a11.034,11.034,0,0,1-21.192,0H10.509a2.682,2.682,0,1,1,0-5.363H17.6a11.03,11.03,0,0,1,21.286,0H55.064a11.03,11.03,0,0,1,21.286,0h5.167V31.849l-3.993-5.03H56.2a2.714,2.714,0,0,1-2.742-2.683V5.365H10.509A2.713,2.713,0,0,1,7.768,2.683,2.711,2.711,0,0,1,10.509,0H56.2a2.713,2.713,0,0,1,2.742,2.683V5.365h11.7a2.751,2.751,0,0,1,2.45,1.475l8.225,16,0,0,5.112,6.441A2.648,2.648,0,0,1,87,30.93V48.364a2.711,2.711,0,0,1-2.741,2.681H76.3a11.034,11.034,0,0,1-21.192,0Zm5.113-2.771a5.484,5.484,0,1,0,5.483-5.363A5.428,5.428,0,0,0,60.225,48.273Zm-37.468,0a5.484,5.484,0,1,0,5.483-5.363A5.428,5.428,0,0,0,22.756,48.273Zm36.19-26.819H74.464L68.952,10.728H58.946Zm-51.726,16a2.682,2.682,0,1,1,0-5.363H19.831a2.682,2.682,0,1,1,0,5.363ZM2.742,26.909a2.683,2.683,0,1,1,0-5.364H26.136a2.683,2.683,0,1,1,0,5.364ZM7.22,16.358A2.682,2.682,0,1,1,7.22,11H30.614a2.682,2.682,0,1,1,0,5.363Z" fill="#2aa47f"/>
</svg>
